<?xml version="1.0" standalone="no"?>
<!DOCTYPE svg PUBLIC "-//W3C//DTD SVG 20010904//EN"
 "http://www.w3.org/TR/2001/REC-SVG-20010904/DTD/svg10.dtd">
<svg version="1.0" xmlns="http://www.w3.org/2000/svg"
 width="1500.000000pt" height="1500.000000pt" viewBox="0 0 1500.000000 1500.000000"
 preserveAspectRatio="xMidYMid meet">
<metadata>
Created by potrace 1.14, written by Peter Selinger 2001-2017
</metadata>
<g transform="translate(0.000000,1500.000000) scale(0.100000,-0.100000)"
fill="#000000" stroke="none">
<path d="M6835 14833 c-1211 -64 -2280 -271 -3230 -625 -1475 -550 -2503
-1421 -2734 -2320 -158 -613 54 -1223 634 -1817 811 -833 2191 -1457 3845
-1740 705 -121 1346 -174 2105 -174 526 0 922 21 1390 73 1812 202 3350 776
4320 1612 132 114 344 331 438 448 132 165 261 374 331 537 l35 82 -32 5 c-18
3 -117 16 -220 31 -721 98 -1414 322 -1947 630 -433 250 -759 541 -992 889
-75 113 -189 329 -203 388 -6 25 -11 26 -88 33 -1232 101 -2324 521 -2983
1148 -230 219 -404 460 -519 720 -35 78 -42 87 -65 85 -14 -1 -52 -3 -85 -5z
m-2494 -1762 c311 -71 519 -236 560 -444 21 -105 -23 -225 -118 -321 -335
-340 -1111 -340 -1446 0 -299 303 -30 695 538 784 97 15 366 4 466 -19z m3315
-686 c121 -21 204 -47 299 -93 145 -71 232 -149 291 -262 26 -49 29 -65 29
-150 0 -83 -3 -102 -27 -150 -149 -301 -677 -456 -1140 -334 -51 13 -138 46
-193 73 -152 76 -239 156 -294 271 -22 46 -26 68 -26 140 1 72 5 94 29 142 85
176 304 311 588 363 103 19 336 18 444 0z m-2776 -1749 c162 -35 287 -89 396
-169 74 -55 125 -115 161 -193 23 -49 28 -72 28 -139 0 -70 -4 -89 -33 -149
-98 -207 -389 -354 -742 -373 -389 -21 -759 134 -873 366 -29 60 -32 74 -32
161 0 85 3 101 29 149 93 178 314 307 611 357 104 17 354 12 455 -10z m4533
-355 c48 -11 127 -36 174 -55 349 -143 479 -422 307 -657 -155 -210 -525 -336
-886 -301 -337 32 -589 167 -695 372 -25 48 -28 66 -28 145 0 79 4 97 28 147
90 182 324 321 622 368 99 15 377 4 478 -19z"/>
<path d="M14170 9065 c-35 -38 -239 -218 -330 -291 -668 -539 -1494 -968
-2479 -1289 -2392 -779 -5420 -779 -7812 0 -1028 335 -1889 792 -2555 1354
-69 58 -141 119 -160 134 l-34 29 0 -769 c0 -427 5 -809 10 -861 37 -348 189
-700 445 -1026 87 -111 291 -326 405 -428 1033 -916 2780 -1545 4755 -1712
388 -33 575 -40 1080 -40 529 -1 711 6 1138 44 1095 98 2106 331 2992 689
1310 530 2216 1298 2484 2106 89 269 93 321 89 1288 l-3 799 -25 -27z"/>
<path d="M803 4184 c5 -873 4 -858 57 -1064 62 -244 205 -518 400 -769 92
-119 322 -355 465 -479 906 -780 2388 -1359 4075 -1591 850 -117 1811 -144
2690 -76 1670 130 3200 591 4275 1288 299 194 531 383 761 619 370 380 568
738 651 1173 13 66 16 221 20 900 l4 820 -43 -41 c-74 -70 -217 -186 -363
-295 -1664 -1240 -4330 -1897 -7070 -1743 -2046 115 -3839 640 -5205 1522
-210 136 -517 369 -668 506 l-53 49 4 -819z"/>
</g>
</svg>
